<svg xmlns="http://www.w3.org/2000/svg" version="1.1" xmlns:xlink="http://www.w3.org/1999/xlink" xmlns:svgjs="http://svgjs.dev/svgjs" viewBox="0 0 800 800" opacity="1" width="800" height="800"><g stroke-width="0.5" stroke="#1c1c1cff" fill="none"><rect width="50" height="50" x="0" y="0" opacity="0.15"></rect><circle r="3.75" cx="0" cy="0" fill="#1c1c1cff" stroke="none"></circle><rect width="50" height="50" x="50" y="0" opacity="0.15"></rect><circle r="3.75" cx="50" cy="0" fill="#1c1c1cff" stroke="none"></circle><rect width="50" height="50" x="100" y="0" opacity="0.15"></rect><circle r="3.75" cx="100" cy="0" fill="#1c1c1cff" stroke="none"></circle><rect width="50" height="50" x="150" y="0" opacity="0.15"></rect><circle r="3.75" cx="150" cy="0" fill="#1c1c1cff" stroke="none"></circle><rect width="50" height="50" x="200" y="0" opacity="0.15"></rect><circle r="3.75" cx="200" cy="0" fill="#1c1c1cff" stroke="none"></circle><rect width="50" height="50" x="250" y="0" opacity="0.15"></rect><circle r="3.75" cx="250" cy="0" fill="#1c1c1cff" stroke="none"></circle><rect width="50" height="50" x="300" y="0" opacity="0.15"></rect><circle r="3.75" cx="300" cy="0" fill="#1c1c1cff" stroke="none"></circle><rect width="50" height="50" x="350" y="0" opacity="0.15"></rect><circle r="3.75" cx="350" cy="0" fill="#1c1c1cff" stroke="none"></circle><rect width="50" height="50" x="400" y="0" opacity="0.15"></rect><circle r="3.75" cx="400" cy="0" fill="#1c1c1cff" stroke="none"></circle><rect width="50" height="50" x="450" y="0" opacity="0.15"></rect><circle r="3.75" cx="450" cy="0" fill="#1c1c1cff" stroke="none"></circle><rect width="50" height="50" x="500" y="0" opacity="0.15"></rect><circle r="3.75" cx="500" cy="0" fill="#1c1c1cff" stroke="none"></circle><rect width="50" height="50" x="550" y="0" opacity="0.15"></rect><circle r="3.75" cx="550" cy="0" fill="#1c1c1cff" stroke="none"></circle><rect width="50" height="50" x="600" y="0" opacity="0.15"></rect><circle r="3.75" cx="600" cy="0" fill="#1c1c1cff" stroke="none"></circle><rect width="50" height="50" x="650" y="0" opacity="0.15"></rect><circle r="3.75" cx="650" cy="0" fill="#1c1c1cff" stroke="none"></circle><rect width="50" height="50" x="700" y="0" opacity="0.15"></rect><circle r="3.75" cx="700" cy="0" fill="#1c1c1cff" stroke="none"></circle><rect width="50" height="50" x="750" y="0" opacity="0.15"></rect><circle r="3.75" cx="750" cy="0" fill="#1c1c1cff" stroke="none"></circle><rect width="50" height="50" x="800" y="0" opacity="0.15"></rect><circle r="3.75" cx="800" cy="0" fill="#1c1c1cff" stroke="none"></circle><rect width="50" height="50" x="0" y="50" opacity="0.15"></rect><circle r="3.75" cx="0" cy="50" fill="#1c1c1cff" stroke="none"></circle><rect width="50" height="50" x="50" y="50" opacity="0.15"></rect><circle r="3.75" cx="50" cy="50" fill="#1c1c1cff" stroke="none"></circle><rect width="50" height="50" x="100" y="50" opacity="0.15"></rect><circle r="3.75" cx="100" cy="50" fill="#1c1c1cff" stroke="none"></circle><rect width="50" height="50" x="150" y="50" opacity="0.15"></rect><circle r="3.75" cx="150" cy="50" fill="#1c1c1cff" stroke="none"></circle><rect width="50" height="50" x="200" y="50" opacity="0.15"></rect><circle r="3.75" cx="200" cy="50" fill="#1c1c1cff" stroke="none"></circle><rect width="50" height="50" x="250" y="50" opacity="0.15"></rect><circle r="3.75" cx="250" cy="50" fill="#1c1c1cff" stroke="none"></circle><rect width="50" height="50" x="300" y="50" opacity="0.15"></rect><circle r="3.75" cx="300" cy="50" fill="#1c1c1cff" stroke="none"></circle><rect width="50" height="50" x="350" y="50" opacity="0.15"></rect><circle r="3.75" cx="350" cy="50" fill="#1c1c1cff" stroke="none"></circle><rect width="50" height="50" x="400" y="50" opacity="0.15"></rect><circle r="3.75" cx="400" cy="50" fill="#1c1c1cff" stroke="none"></circle><rect width="50" height="50" x="450" y="50" opacity="0.15"></rect><circle r="3.75" cx="450" cy="50" fill="#1c1c1cff" stroke="none"></circle><rect width="50" height="50" x="500" y="50" opacity="0.15"></rect><circle r="3.75" cx="500" cy="50" fill="#1c1c1cff" stroke="none"></circle><rect width="50" height="50" x="550" y="50" opacity="0.15"></rect><circle r="3.75" cx="550" cy="50" fill="#1c1c1cff" stroke="none"></circle><rect width="50" height="50" x="600" y="50" opacity="0.15"></rect><circle r="3.75" cx="600" cy="50" fill="#1c1c1cff" stroke="none"></circle><rect width="50" height="50" x="650" y="50" opacity="0.15"></rect><circle r="3.75" cx="650" cy="50" fill="#1c1c1cff" stroke="none"></circle><rect width="50" height="50" x="700" y="50" opacity="0.15"></rect><circle r="3.75" cx="700" cy="50" fill="#1c1c1cff" stroke="none"></circle><rect width="50" height="50" x="750" y="50" opacity="0.15"></rect><circle r="3.75" cx="750" cy="50" fill="#1c1c1cff" stroke="none"></circle><rect width="50" height="50" x="800" y="50" opacity="0.15"></rect><circle r="3.75" cx="800" cy="50" fill="#1c1c1cff" stroke="none"></circle><rect width="50" height="50" x="0" y="100" opacity="0.15"></rect><circle r="3.75" cx="0" cy="100" fill="#1c1c1cff" stroke="none"></circle><rect width="50" height="50" x="50" y="100" opacity="0.15"></rect><circle r="3.75" cx="50" cy="100" fill="#1c1c1cff" stroke="none"></circle><rect width="50" height="50" x="100" y="100" opacity="0.15"></rect><circle r="3.75" cx="100" cy="100" fill="#1c1c1cff" stroke="none"></circle><rect width="50" height="50" x="150" y="100" opacity="0.15"></rect><circle r="3.75" cx="150" cy="100" fill="#1c1c1cff" stroke="none"></circle><rect width="50" height="50" x="200" y="100" opacity="0.15"></rect><circle r="3.75" cx="200" cy="100" fill="#1c1c1cff" stroke="none"></circle><rect width="50" height="50" x="250" y="100" opacity="0.15"></rect><circle r="3.75" cx="250" cy="100" fill="#1c1c1cff" stroke="none"></circle><rect width="50" height="50" x="300" y="100" opacity="0.15"></rect><circle r="3.75" cx="300" cy="100" fill="#1c1c1cff" stroke="none"></circle><rect width="50" height="50" x="350" y="100" opacity="0.15"></rect><circle r="3.75" cx="350" cy="100" fill="#1c1c1cff" stroke="none"></circle><rect width="50" height="50" x="400" y="100" opacity="0.15"></rect><circle r="3.75" cx="400" cy="100" fill="#1c1c1cff" stroke="none"></circle><rect width="50" height="50" x="450" y="100" opacity="0.15"></rect><circle r="3.75" cx="450" cy="100" fill="#1c1c1cff" stroke="none"></circle><rect width="50" height="50" x="500" y="100" opacity="0.15"></rect><circle r="3.75" cx="500" cy="100" fill="#1c1c1cff" stroke="none"></circle><rect width="50" height="50" x="550" y="100" opacity="0.15"></rect><circle r="3.75" cx="550" cy="100" fill="#1c1c1cff" stroke="none"></circle><rect width="50" height="50" x="600" y="100" opacity="0.15"></rect><circle r="3.75" cx="600" cy="100" fill="#1c1c1cff" stroke="none"></circle><rect width="50" height="50" x="650" y="100" opacity="0.15"></rect><circle r="3.75" cx="650" cy="100" fill="#1c1c1cff" stroke="none"></circle><rect width="50" height="50" x="700" y="100" opacity="0.15"></rect><circle r="3.75" cx="700" cy="100" fill="#1c1c1cff" stroke="none"></circle><rect width="50" height="50" x="750" y="100" opacity="0.15"></rect><circle r="3.75" cx="750" cy="100" fill="#1c1c1cff" stroke="none"></circle><rect width="50" height="50" x="800" y="100" opacity="0.15"></rect><circle r="3.75" cx="800" cy="100" fill="#1c1c1cff" stroke="none"></circle><rect width="50" height="50" x="0" y="150" opacity="0.15"></rect><circle r="3.75" cx="0" cy="150" fill="#1c1c1cff" stroke="none"></circle><rect width="50" height="50" x="50" y="150" opacity="0.15"></rect><circle r="3.75" cx="50" cy="150" fill="#1c1c1cff" stroke="none"></circle><rect width="50" height="50" x="100" y="150" opacity="0.15"></rect><circle r="3.75" cx="100" cy="150" fill="#1c1c1cff" stroke="none"></circle><rect width="50" height="50" x="150" y="150" opacity="0.15"></rect><circle r="3.75" cx="150" cy="150" fill="#1c1c1cff" stroke="none"></circle><rect width="50" height="50" x="200" y="150" opacity="0.15"></rect><circle r="3.75" cx="200" cy="150" fill="#1c1c1cff" stroke="none"></circle><rect width="50" height="50" x="250" y="150" opacity="0.15"></rect><circle r="3.75" cx="250" cy="150" fill="#1c1c1cff" stroke="none"></circle><rect width="50" height="50" x="300" y="150" opacity="0.15"></rect><circle r="3.75" cx="300" cy="150" fill="#1c1c1cff" stroke="none"></circle><rect width="50" height="50" x="350" y="150" opacity="0.15"></rect><circle r="3.75" cx="350" cy="150" fill="#1c1c1cff" stroke="none"></circle><rect width="50" height="50" x="400" y="150" opacity="0.15"></rect><circle r="3.75" cx="400" cy="150" fill="#1c1c1cff" stroke="none"></circle><rect width="50" height="50" x="450" y="150" opacity="0.15"></rect><circle r="3.75" cx="450" cy="150" fill="#1c1c1cff" stroke="none"></circle><rect width="50" height="50" x="500" y="150" opacity="0.15"></rect><circle r="3.75" cx="500" cy="150" fill="#1c1c1cff" stroke="none"></circle><rect width="50" height="50" x="550" y="150" opacity="0.15"></rect><circle r="3.75" cx="550" cy="150" fill="#1c1c1cff" stroke="none"></circle><rect width="50" height="50" x="600" y="150" opacity="0.15"></rect><circle r="3.75" cx="600" cy="150" fill="#1c1c1cff" stroke="none"></circle><rect width="50" height="50" x="650" y="150" opacity="0.15"></rect><circle r="3.75" cx="650" cy="150" fill="#1c1c1cff" stroke="none"></circle><rect width="50" height="50" x="700" y="150" opacity="0.15"></rect><circle r="3.75" cx="700" cy="150" fill="#1c1c1cff" stroke="none"></circle><rect width="50" height="50" x="750" y="150" opacity="0.15"></rect><circle r="3.75" cx="750" cy="150" fill="#1c1c1cff" stroke="none"></circle><rect width="50" height="50" x="800" y="150" opacity="0.15"></rect><circle r="3.75" cx="800" cy="150" fill="#1c1c1cff" stroke="none"></circle><rect width="50" height="50" x="0" y="200" opacity="0.15"></rect><circle r="3.75" cx="0" cy="200" fill="#1c1c1cff" stroke="none"></circle><rect width="50" height="50" x="50" y="200" opacity="0.15"></rect><circle r="3.75" cx="50" cy="200" fill="#1c1c1cff" stroke="none"></circle><rect width="50" height="50" x="100" y="200" opacity="0.15"></rect><circle r="3.75" cx="100" cy="200" fill="#1c1c1cff" stroke="none"></circle><rect width="50" height="50" x="150" y="200" opacity="0.15"></rect><circle r="3.75" cx="150" cy="200" fill="#1c1c1cff" stroke="none"></circle><rect width="50" height="50" x="200" y="200" opacity="0.15"></rect><circle r="3.75" cx="200" cy="200" fill="#1c1c1cff" stroke="none"></circle><rect width="50" height="50" x="250" y="200" opacity="0.15"></rect><circle r="3.75" cx="250" cy="200" fill="#1c1c1cff" stroke="none"></circle><rect width="50" height="50" x="300" y="200" opacity="0.15"></rect><circle r="3.75" cx="300" cy="200" fill="#1c1c1cff" stroke="none"></circle><rect width="50" height="50" x="350" y="200" opacity="0.15"></rect><circle r="3.75" cx="350" cy="200" fill="#1c1c1cff" stroke="none"></circle><rect width="50" height="50" x="400" y="200" opacity="0.15"></rect><circle r="3.75" cx="400" cy="200" fill="#1c1c1cff" stroke="none"></circle><rect width="50" height="50" x="450" y="200" opacity="0.15"></rect><circle r="3.75" cx="450" cy="200" fill="#1c1c1cff" stroke="none"></circle><rect width="50" height="50" x="500" y="200" opacity="0.15"></rect><circle r="3.75" cx="500" cy="200" fill="#1c1c1cff" stroke="none"></circle><rect width="50" height="50" x="550" y="200" opacity="0.15"></rect><circle r="3.75" cx="550" cy="200" fill="#1c1c1cff" stroke="none"></circle><rect width="50" height="50" x="600" y="200" opacity="0.15"></rect><circle r="3.75" cx="600" cy="200" fill="#1c1c1cff" stroke="none"></circle><rect width="50" height="50" x="650" y="200" opacity="0.15"></rect><circle r="3.75" cx="650" cy="200" fill="#1c1c1cff" stroke="none"></circle><rect width="50" height="50" x="700" y="200" opacity="0.15"></rect><circle r="3.75" cx="700" cy="200" fill="#1c1c1cff" stroke="none"></circle><rect width="50" height="50" x="750" y="200" opacity="0.15"></rect><circle r="3.75" cx="750" cy="200" fill="#1c1c1cff" stroke="none"></circle><rect width="50" height="50" x="800" y="200" opacity="0.15"></rect><circle r="3.75" cx="800" cy="200" fill="#1c1c1cff" stroke="none"></circle><rect width="50" height="50" x="0" y="250" opacity="0.15"></rect><circle r="3.75" cx="0" cy="250" fill="#1c1c1cff" stroke="none"></circle><rect width="50" height="50" x="50" y="250" opacity="0.15"></rect><circle r="3.75" cx="50" cy="250" fill="#1c1c1cff" stroke="none"></circle><rect width="50" height="50" x="100" y="250" opacity="0.15"></rect><circle r="3.75" cx="100" cy="250" fill="#1c1c1cff" stroke="none"></circle><rect width="50" height="50" x="150" y="250" opacity="0.15"></rect><circle r="3.75" cx="150" cy="250" fill="#1c1c1cff" stroke="none"></circle><rect width="50" height="50" x="200" y="250" opacity="0.15"></rect><circle r="3.75" cx="200" cy="250" fill="#1c1c1cff" stroke="none"></circle><rect width="50" height="50" x="250" y="250" opacity="0.15"></rect><circle r="3.75" cx="250" cy="250" fill="#1c1c1cff" stroke="none"></circle><rect width="50" height="50" x="300" y="250" opacity="0.15"></rect><circle r="3.75" cx="300" cy="250" fill="#1c1c1cff" stroke="none"></circle><rect width="50" height="50" x="350" y="250" opacity="0.15"></rect><circle r="3.75" cx="350" cy="250" fill="#1c1c1cff" stroke="none"></circle><rect width="50" height="50" x="400" y="250" opacity="0.15"></rect><circle r="3.75" cx="400" cy="250" fill="#1c1c1cff" stroke="none"></circle><rect width="50" height="50" x="450" y="250" opacity="0.15"></rect><circle r="3.75" cx="450" cy="250" fill="#1c1c1cff" stroke="none"></circle><rect width="50" height="50" x="500" y="250" opacity="0.15"></rect><circle r="3.75" cx="500" cy="250" fill="#1c1c1cff" stroke="none"></circle><rect width="50" height="50" x="550" y="250" opacity="0.15"></rect><circle r="3.75" cx="550" cy="250" fill="#1c1c1cff" stroke="none"></circle><rect width="50" height="50" x="600" y="250" opacity="0.15"></rect><circle r="3.75" cx="600" cy="250" fill="#1c1c1cff" stroke="none"></circle><rect width="50" height="50" x="650" y="250" opacity="0.15"></rect><circle r="3.75" cx="650" cy="250" fill="#1c1c1cff" stroke="none"></circle><rect width="50" height="50" x="700" y="250" opacity="0.15"></rect><circle r="3.75" cx="700" cy="250" fill="#1c1c1cff" stroke="none"></circle><rect width="50" height="50" x="750" y="250" opacity="0.15"></rect><circle r="3.75" cx="750" cy="250" fill="#1c1c1cff" stroke="none"></circle><rect width="50" height="50" x="800" y="250" opacity="0.15"></rect><circle r="3.75" cx="800" cy="250" fill="#1c1c1cff" stroke="none"></circle><rect width="50" height="50" x="0" y="300" opacity="0.15"></rect><circle r="3.75" cx="0" cy="300" fill="#1c1c1cff" stroke="none"></circle><rect width="50" height="50" x="50" y="300" opacity="0.15"></rect><circle r="3.75" cx="50" cy="300" fill="#1c1c1cff" stroke="none"></circle><rect width="50" height="50" x="100" y="300" opacity="0.15"></rect><circle r="3.75" cx="100" cy="300" fill="#1c1c1cff" stroke="none"></circle><rect width="50" height="50" x="150" y="300" opacity="0.15"></rect><circle r="3.75" cx="150" cy="300" fill="#1c1c1cff" stroke="none"></circle><rect width="50" height="50" x="200" y="300" opacity="0.15"></rect><circle r="3.75" cx="200" cy="300" fill="#1c1c1cff" stroke="none"></circle><rect width="50" height="50" x="250" y="300" opacity="0.15"></rect><circle r="3.75" cx="250" cy="300" fill="#1c1c1cff" stroke="none"></circle><rect width="50" height="50" x="300" y="300" opacity="0.15"></rect><circle r="3.75" cx="300" cy="300" fill="#1c1c1cff" stroke="none"></circle><rect width="50" height="50" x="350" y="300" opacity="0.15"></rect><circle r="3.75" cx="350" cy="300" fill="#1c1c1cff" stroke="none"></circle><rect width="50" height="50" x="400" y="300" opacity="0.15"></rect><circle r="3.75" cx="400" cy="300" fill="#1c1c1cff" stroke="none"></circle><rect width="50" height="50" x="450" y="300" opacity="0.15"></rect><circle r="3.75" cx="450" cy="300" fill="#1c1c1cff" stroke="none"></circle><rect width="50" height="50" x="500" y="300" opacity="0.15"></rect><circle r="3.75" cx="500" cy="300" fill="#1c1c1cff" stroke="none"></circle><rect width="50" height="50" x="550" y="300" opacity="0.15"></rect><circle r="3.75" cx="550" cy="300" fill="#1c1c1cff" stroke="none"></circle><rect width="50" height="50" x="600" y="300" opacity="0.15"></rect><circle r="3.75" cx="600" cy="300" fill="#1c1c1cff" stroke="none"></circle><rect width="50" height="50" x="650" y="300" opacity="0.15"></rect><circle r="3.75" cx="650" cy="300" fill="#1c1c1cff" stroke="none"></circle><rect width="50" height="50" x="700" y="300" opacity="0.15"></rect><circle r="3.75" cx="700" cy="300" fill="#1c1c1cff" stroke="none"></circle><rect width="50" height="50" x="750" y="300" opacity="0.15"></rect><circle r="3.75" cx="750" cy="300" fill="#1c1c1cff" stroke="none"></circle><rect width="50" height="50" x="800" y="300" opacity="0.15"></rect><circle r="3.75" cx="800" cy="300" fill="#1c1c1cff" stroke="none"></circle><rect width="50" height="50" x="0" y="350" opacity="0.15"></rect><circle r="3.75" cx="0" cy="350" fill="#1c1c1cff" stroke="none"></circle><rect width="50" height="50" x="50" y="350" opacity="0.15"></rect><circle r="3.75" cx="50" cy="350" fill="#1c1c1cff" stroke="none"></circle><rect width="50" height="50" x="100" y="350" opacity="0.15"></rect><circle r="3.75" cx="100" cy="350" fill="#1c1c1cff" stroke="none"></circle><rect width="50" height="50" x="150" y="350" opacity="0.15"></rect><circle r="3.75" cx="150" cy="350" fill="#1c1c1cff" stroke="none"></circle><rect width="50" height="50" x="200" y="350" opacity="0.15"></rect><circle r="3.75" cx="200" cy="350" fill="#1c1c1cff" stroke="none"></circle><rect width="50" height="50" x="250" y="350" opacity="0.15"></rect><circle r="3.75" cx="250" cy="350" fill="#1c1c1cff" stroke="none"></circle><rect width="50" height="50" x="300" y="350" opacity="0.15"></rect><circle r="3.75" cx="300" cy="350" fill="#1c1c1cff" stroke="none"></circle><rect width="50" height="50" x="350" y="350" opacity="0.15"></rect><circle r="3.75" cx="350" cy="350" fill="#1c1c1cff" stroke="none"></circle><rect width="50" height="50" x="400" y="350" opacity="0.15"></rect><circle r="3.75" cx="400" cy="350" fill="#1c1c1cff" stroke="none"></circle><rect width="50" height="50" x="450" y="350" opacity="0.15"></rect><circle r="3.75" cx="450" cy="350" fill="#1c1c1cff" stroke="none"></circle><rect width="50" height="50" x="500" y="350" opacity="0.15"></rect><circle r="3.75" cx="500" cy="350" fill="#1c1c1cff" stroke="none"></circle><rect width="50" height="50" x="550" y="350" opacity="0.15"></rect><circle r="3.75" cx="550" cy="350" fill="#1c1c1cff" stroke="none"></circle><rect width="50" height="50" x="600" y="350" opacity="0.15"></rect><circle r="3.75" cx="600" cy="350" fill="#1c1c1cff" stroke="none"></circle><rect width="50" height="50" x="650" y="350" opacity="0.15"></rect><circle r="3.75" cx="650" cy="350" fill="#1c1c1cff" stroke="none"></circle><rect width="50" height="50" x="700" y="350" opacity="0.15"></rect><circle r="3.75" cx="700" cy="350" fill="#1c1c1cff" stroke="none"></circle><rect width="50" height="50" x="750" y="350" opacity="0.15"></rect><circle r="3.75" cx="750" cy="350" fill="#1c1c1cff" stroke="none"></circle><rect width="50" height="50" x="800" y="350" opacity="0.15"></rect><circle r="3.75" cx="800" cy="350" fill="#1c1c1cff" stroke="none"></circle><rect width="50" height="50" x="0" y="400" opacity="0.15"></rect><circle r="3.75" cx="0" cy="400" fill="#1c1c1cff" stroke="none"></circle><rect width="50" height="50" x="50" y="400" opacity="0.15"></rect><circle r="3.75" cx="50" cy="400" fill="#1c1c1cff" stroke="none"></circle><rect width="50" height="50" x="100" y="400" opacity="0.15"></rect><circle r="3.75" cx="100" cy="400" fill="#1c1c1cff" stroke="none"></circle><rect width="50" height="50" x="150" y="400" opacity="0.15"></rect><circle r="3.75" cx="150" cy="400" fill="#1c1c1cff" stroke="none"></circle><rect width="50" height="50" x="200" y="400" opacity="0.15"></rect><circle r="3.75" cx="200" cy="400" fill="#1c1c1cff" stroke="none"></circle><rect width="50" height="50" x="250" y="400" opacity="0.15"></rect><circle r="3.75" cx="250" cy="400" fill="#1c1c1cff" stroke="none"></circle><rect width="50" height="50" x="300" y="400" opacity="0.15"></rect><circle r="3.75" cx="300" cy="400" fill="#1c1c1cff" stroke="none"></circle><rect width="50" height="50" x="350" y="400" opacity="0.15"></rect><circle r="3.75" cx="350" cy="400" fill="#1c1c1cff" stroke="none"></circle><rect width="50" height="50" x="400" y="400" opacity="0.15"></rect><circle r="3.75" cx="400" cy="400" fill="#1c1c1cff" stroke="none"></circle><rect width="50" height="50" x="450" y="400" opacity="0.15"></rect><circle r="3.75" cx="450" cy="400" fill="#1c1c1cff" stroke="none"></circle><rect width="50" height="50" x="500" y="400" opacity="0.15"></rect><circle r="3.75" cx="500" cy="400" fill="#1c1c1cff" stroke="none"></circle><rect width="50" height="50" x="550" y="400" opacity="0.15"></rect><circle r="3.75" cx="550" cy="400" fill="#1c1c1cff" stroke="none"></circle><rect width="50" height="50" x="600" y="400" opacity="0.15"></rect><circle r="3.75" cx="600" cy="400" fill="#1c1c1cff" stroke="none"></circle><rect width="50" height="50" x="650" y="400" opacity="0.15"></rect><circle r="3.75" cx="650" cy="400" fill="#1c1c1cff" stroke="none"></circle><rect width="50" height="50" x="700" y="400" opacity="0.15"></rect><circle r="3.75" cx="700" cy="400" fill="#1c1c1cff" stroke="none"></circle><rect width="50" height="50" x="750" y="400" opacity="0.15"></rect><circle r="3.75" cx="750" cy="400" fill="#1c1c1cff" stroke="none"></circle><rect width="50" height="50" x="800" y="400" opacity="0.15"></rect><circle r="3.75" cx="800" cy="400" fill="#1c1c1cff" stroke="none"></circle><rect width="50" height="50" x="0" y="450" opacity="0.15"></rect><circle r="3.75" cx="0" cy="450" fill="#1c1c1cff" stroke="none"></circle><rect width="50" height="50" x="50" y="450" opacity="0.15"></rect><circle r="3.75" cx="50" cy="450" fill="#1c1c1cff" stroke="none"></circle><rect width="50" height="50" x="100" y="450" opacity="0.15"></rect><circle r="3.75" cx="100" cy="450" fill="#1c1c1cff" stroke="none"></circle><rect width="50" height="50" x="150" y="450" opacity="0.15"></rect><circle r="3.75" cx="150" cy="450" fill="#1c1c1cff" stroke="none"></circle><rect width="50" height="50" x="200" y="450" opacity="0.15"></rect><circle r="3.75" cx="200" cy="450" fill="#1c1c1cff" stroke="none"></circle><rect width="50" height="50" x="250" y="450" opacity="0.15"></rect><circle r="3.75" cx="250" cy="450" fill="#1c1c1cff" stroke="none"></circle><rect width="50" height="50" x="300" y="450" opacity="0.15"></rect><circle r="3.75" cx="300" cy="450" fill="#1c1c1cff" stroke="none"></circle><rect width="50" height="50" x="350" y="450" opacity="0.15"></rect><circle r="3.75" cx="350" cy="450" fill="#1c1c1cff" stroke="none"></circle><rect width="50" height="50" x="400" y="450" opacity="0.15"></rect><circle r="3.75" cx="400" cy="450" fill="#1c1c1cff" stroke="none"></circle><rect width="50" height="50" x="450" y="450" opacity="0.15"></rect><circle r="3.75" cx="450" cy="450" fill="#1c1c1cff" stroke="none"></circle><rect width="50" height="50" x="500" y="450" opacity="0.15"></rect><circle r="3.75" cx="500" cy="450" fill="#1c1c1cff" stroke="none"></circle><rect width="50" height="50" x="550" y="450" opacity="0.15"></rect><circle r="3.75" cx="550" cy="450" fill="#1c1c1cff" stroke="none"></circle><rect width="50" height="50" x="600" y="450" opacity="0.15"></rect><circle r="3.75" cx="600" cy="450" fill="#1c1c1cff" stroke="none"></circle><rect width="50" height="50" x="650" y="450" opacity="0.15"></rect><circle r="3.75" cx="650" cy="450" fill="#1c1c1cff" stroke="none"></circle><rect width="50" height="50" x="700" y="450" opacity="0.15"></rect><circle r="3.75" cx="700" cy="450" fill="#1c1c1cff" stroke="none"></circle><rect width="50" height="50" x="750" y="450" opacity="0.15"></rect><circle r="3.75" cx="750" cy="450" fill="#1c1c1cff" stroke="none"></circle><rect width="50" height="50" x="800" y="450" opacity="0.15"></rect><circle r="3.75" cx="800" cy="450" fill="#1c1c1cff" stroke="none"></circle><rect width="50" height="50" x="0" y="500" opacity="0.15"></rect><circle r="3.75" cx="0" cy="500" fill="#1c1c1cff" stroke="none"></circle><rect width="50" height="50" x="50" y="500" opacity="0.15"></rect><circle r="3.75" cx="50" cy="500" fill="#1c1c1cff" stroke="none"></circle><rect width="50" height="50" x="100" y="500" opacity="0.15"></rect><circle r="3.75" cx="100" cy="500" fill="#1c1c1cff" stroke="none"></circle><rect width="50" height="50" x="150" y="500" opacity="0.15"></rect><circle r="3.75" cx="150" cy="500" fill="#1c1c1cff" stroke="none"></circle><rect width="50" height="50" x="200" y="500" opacity="0.15"></rect><circle r="3.75" cx="200" cy="500" fill="#1c1c1cff" stroke="none"></circle><rect width="50" height="50" x="250" y="500" opacity="0.15"></rect><circle r="3.75" cx="250" cy="500" fill="#1c1c1cff" stroke="none"></circle><rect width="50" height="50" x="300" y="500" opacity="0.15"></rect><circle r="3.75" cx="300" cy="500" fill="#1c1c1cff" stroke="none"></circle><rect width="50" height="50" x="350" y="500" opacity="0.15"></rect><circle r="3.75" cx="350" cy="500" fill="#1c1c1cff" stroke="none"></circle><rect width="50" height="50" x="400" y="500" opacity="0.15"></rect><circle r="3.75" cx="400" cy="500" fill="#1c1c1cff" stroke="none"></circle><rect width="50" height="50" x="450" y="500" opacity="0.15"></rect><circle r="3.75" cx="450" cy="500" fill="#1c1c1cff" stroke="none"></circle><rect width="50" height="50" x="500" y="500" opacity="0.15"></rect><circle r="3.75" cx="500" cy="500" fill="#1c1c1cff" stroke="none"></circle><rect width="50" height="50" x="550" y="500" opacity="0.15"></rect><circle r="3.75" cx="550" cy="500" fill="#1c1c1cff" stroke="none"></circle><rect width="50" height="50" x="600" y="500" opacity="0.15"></rect><circle r="3.75" cx="600" cy="500" fill="#1c1c1cff" stroke="none"></circle><rect width="50" height="50" x="650" y="500" opacity="0.15"></rect><circle r="3.75" cx="650" cy="500" fill="#1c1c1cff" stroke="none"></circle><rect width="50" height="50" x="700" y="500" opacity="0.15"></rect><circle r="3.75" cx="700" cy="500" fill="#1c1c1cff" stroke="none"></circle><rect width="50" height="50" x="750" y="500" opacity="0.15"></rect><circle r="3.75" cx="750" cy="500" fill="#1c1c1cff" stroke="none"></circle><rect width="50" height="50" x="800" y="500" opacity="0.15"></rect><circle r="3.75" cx="800" cy="500" fill="#1c1c1cff" stroke="none"></circle><rect width="50" height="50" x="0" y="550" opacity="0.15"></rect><circle r="3.75" cx="0" cy="550" fill="#1c1c1cff" stroke="none"></circle><rect width="50" height="50" x="50" y="550" opacity="0.15"></rect><circle r="3.75" cx="50" cy="550" fill="#1c1c1cff" stroke="none"></circle><rect width="50" height="50" x="100" y="550" opacity="0.15"></rect><circle r="3.75" cx="100" cy="550" fill="#1c1c1cff" stroke="none"></circle><rect width="50" height="50" x="150" y="550" opacity="0.15"></rect><circle r="3.75" cx="150" cy="550" fill="#1c1c1cff" stroke="none"></circle><rect width="50" height="50" x="200" y="550" opacity="0.15"></rect><circle r="3.75" cx="200" cy="550" fill="#1c1c1cff" stroke="none"></circle><rect width="50" height="50" x="250" y="550" opacity="0.15"></rect><circle r="3.75" cx="250" cy="550" fill="#1c1c1cff" stroke="none"></circle><rect width="50" height="50" x="300" y="550" opacity="0.15"></rect><circle r="3.75" cx="300" cy="550" fill="#1c1c1cff" stroke="none"></circle><rect width="50" height="50" x="350" y="550" opacity="0.15"></rect><circle r="3.75" cx="350" cy="550" fill="#1c1c1cff" stroke="none"></circle><rect width="50" height="50" x="400" y="550" opacity="0.15"></rect><circle r="3.75" cx="400" cy="550" fill="#1c1c1cff" stroke="none"></circle><rect width="50" height="50" x="450" y="550" opacity="0.15"></rect><circle r="3.75" cx="450" cy="550" fill="#1c1c1cff" stroke="none"></circle><rect width="50" height="50" x="500" y="550" opacity="0.15"></rect><circle r="3.75" cx="500" cy="550" fill="#1c1c1cff" stroke="none"></circle><rect width="50" height="50" x="550" y="550" opacity="0.15"></rect><circle r="3.75" cx="550" cy="550" fill="#1c1c1cff" stroke="none"></circle><rect width="50" height="50" x="600" y="550" opacity="0.15"></rect><circle r="3.75" cx="600" cy="550" fill="#1c1c1cff" stroke="none"></circle><rect width="50" height="50" x="650" y="550" opacity="0.15"></rect><circle r="3.75" cx="650" cy="550" fill="#1c1c1cff" stroke="none"></circle><rect width="50" height="50" x="700" y="550" opacity="0.15"></rect><circle r="3.75" cx="700" cy="550" fill="#1c1c1cff" stroke="none"></circle><rect width="50" height="50" x="750" y="550" opacity="0.15"></rect><circle r="3.75" cx="750" cy="550" fill="#1c1c1cff" stroke="none"></circle><rect width="50" height="50" x="800" y="550" opacity="0.15"></rect><circle r="3.75" cx="800" cy="550" fill="#1c1c1cff" stroke="none"></circle><rect width="50" height="50" x="0" y="600" opacity="0.15"></rect><circle r="3.75" cx="0" cy="600" fill="#1c1c1cff" stroke="none"></circle><rect width="50" height="50" x="50" y="600" opacity="0.15"></rect><circle r="3.75" cx="50" cy="600" fill="#1c1c1cff" stroke="none"></circle><rect width="50" height="50" x="100" y="600" opacity="0.15"></rect><circle r="3.75" cx="100" cy="600" fill="#1c1c1cff" stroke="none"></circle><rect width="50" height="50" x="150" y="600" opacity="0.15"></rect><circle r="3.75" cx="150" cy="600" fill="#1c1c1cff" stroke="none"></circle><rect width="50" height="50" x="200" y="600" opacity="0.15"></rect><circle r="3.75" cx="200" cy="600" fill="#1c1c1cff" stroke="none"></circle><rect width="50" height="50" x="250" y="600" opacity="0.15"></rect><circle r="3.75" cx="250" cy="600" fill="#1c1c1cff" stroke="none"></circle><rect width="50" height="50" x="300" y="600" opacity="0.15"></rect><circle r="3.75" cx="300" cy="600" fill="#1c1c1cff" stroke="none"></circle><rect width="50" height="50" x="350" y="600" opacity="0.15"></rect><circle r="3.75" cx="350" cy="600" fill="#1c1c1cff" stroke="none"></circle><rect width="50" height="50" x="400" y="600" opacity="0.15"></rect><circle r="3.75" cx="400" cy="600" fill="#1c1c1cff" stroke="none"></circle><rect width="50" height="50" x="450" y="600" opacity="0.15"></rect><circle r="3.75" cx="450" cy="600" fill="#1c1c1cff" stroke="none"></circle><rect width="50" height="50" x="500" y="600" opacity="0.15"></rect><circle r="3.75" cx="500" cy="600" fill="#1c1c1cff" stroke="none"></circle><rect width="50" height="50" x="550" y="600" opacity="0.15"></rect><circle r="3.75" cx="550" cy="600" fill="#1c1c1cff" stroke="none"></circle><rect width="50" height="50" x="600" y="600" opacity="0.15"></rect><circle r="3.75" cx="600" cy="600" fill="#1c1c1cff" stroke="none"></circle><rect width="50" height="50" x="650" y="600" opacity="0.15"></rect><circle r="3.75" cx="650" cy="600" fill="#1c1c1cff" stroke="none"></circle><rect width="50" height="50" x="700" y="600" opacity="0.15"></rect><circle r="3.75" cx="700" cy="600" fill="#1c1c1cff" stroke="none"></circle><rect width="50" height="50" x="750" y="600" opacity="0.15"></rect><circle r="3.75" cx="750" cy="600" fill="#1c1c1cff" stroke="none"></circle><rect width="50" height="50" x="800" y="600" opacity="0.15"></rect><circle r="3.75" cx="800" cy="600" fill="#1c1c1cff" stroke="none"></circle><rect width="50" height="50" x="0" y="650" opacity="0.15"></rect><circle r="3.75" cx="0" cy="650" fill="#1c1c1cff" stroke="none"></circle><rect width="50" height="50" x="50" y="650" opacity="0.15"></rect><circle r="3.75" cx="50" cy="650" fill="#1c1c1cff" stroke="none"></circle><rect width="50" height="50" x="100" y="650" opacity="0.15"></rect><circle r="3.75" cx="100" cy="650" fill="#1c1c1cff" stroke="none"></circle><rect width="50" height="50" x="150" y="650" opacity="0.15"></rect><circle r="3.75" cx="150" cy="650" fill="#1c1c1cff" stroke="none"></circle><rect width="50" height="50" x="200" y="650" opacity="0.15"></rect><circle r="3.75" cx="200" cy="650" fill="#1c1c1cff" stroke="none"></circle><rect width="50" height="50" x="250" y="650" opacity="0.15"></rect><circle r="3.75" cx="250" cy="650" fill="#1c1c1cff" stroke="none"></circle><rect width="50" height="50" x="300" y="650" opacity="0.15"></rect><circle r="3.75" cx="300" cy="650" fill="#1c1c1cff" stroke="none"></circle><rect width="50" height="50" x="350" y="650" opacity="0.15"></rect><circle r="3.75" cx="350" cy="650" fill="#1c1c1cff" stroke="none"></circle><rect width="50" height="50" x="400" y="650" opacity="0.15"></rect><circle r="3.75" cx="400" cy="650" fill="#1c1c1cff" stroke="none"></circle><rect width="50" height="50" x="450" y="650" opacity="0.15"></rect><circle r="3.75" cx="450" cy="650" fill="#1c1c1cff" stroke="none"></circle><rect width="50" height="50" x="500" y="650" opacity="0.15"></rect><circle r="3.75" cx="500" cy="650" fill="#1c1c1cff" stroke="none"></circle><rect width="50" height="50" x="550" y="650" opacity="0.15"></rect><circle r="3.75" cx="550" cy="650" fill="#1c1c1cff" stroke="none"></circle><rect width="50" height="50" x="600" y="650" opacity="0.15"></rect><circle r="3.75" cx="600" cy="650" fill="#1c1c1cff" stroke="none"></circle><rect width="50" height="50" x="650" y="650" opacity="0.15"></rect><circle r="3.75" cx="650" cy="650" fill="#1c1c1cff" stroke="none"></circle><rect width="50" height="50" x="700" y="650" opacity="0.15"></rect><circle r="3.75" cx="700" cy="650" fill="#1c1c1cff" stroke="none"></circle><rect width="50" height="50" x="750" y="650" opacity="0.15"></rect><circle r="3.75" cx="750" cy="650" fill="#1c1c1cff" stroke="none"></circle><rect width="50" height="50" x="800" y="650" opacity="0.15"></rect><circle r="3.75" cx="800" cy="650" fill="#1c1c1cff" stroke="none"></circle><rect width="50" height="50" x="0" y="700" opacity="0.15"></rect><circle r="3.75" cx="0" cy="700" fill="#1c1c1cff" stroke="none"></circle><rect width="50" height="50" x="50" y="700" opacity="0.15"></rect><circle r="3.75" cx="50" cy="700" fill="#1c1c1cff" stroke="none"></circle><rect width="50" height="50" x="100" y="700" opacity="0.15"></rect><circle r="3.75" cx="100" cy="700" fill="#1c1c1cff" stroke="none"></circle><rect width="50" height="50" x="150" y="700" opacity="0.15"></rect><circle r="3.75" cx="150" cy="700" fill="#1c1c1cff" stroke="none"></circle><rect width="50" height="50" x="200" y="700" opacity="0.15"></rect><circle r="3.75" cx="200" cy="700" fill="#1c1c1cff" stroke="none"></circle><rect width="50" height="50" x="250" y="700" opacity="0.15"></rect><circle r="3.75" cx="250" cy="700" fill="#1c1c1cff" stroke="none"></circle><rect width="50" height="50" x="300" y="700" opacity="0.15"></rect><circle r="3.75" cx="300" cy="700" fill="#1c1c1cff" stroke="none"></circle><rect width="50" height="50" x="350" y="700" opacity="0.15"></rect><circle r="3.75" cx="350" cy="700" fill="#1c1c1cff" stroke="none"></circle><rect width="50" height="50" x="400" y="700" opacity="0.15"></rect><circle r="3.75" cx="400" cy="700" fill="#1c1c1cff" stroke="none"></circle><rect width="50" height="50" x="450" y="700" opacity="0.15"></rect><circle r="3.75" cx="450" cy="700" fill="#1c1c1cff" stroke="none"></circle><rect width="50" height="50" x="500" y="700" opacity="0.15"></rect><circle r="3.75" cx="500" cy="700" fill="#1c1c1cff" stroke="none"></circle><rect width="50" height="50" x="550" y="700" opacity="0.15"></rect><circle r="3.75" cx="550" cy="700" fill="#1c1c1cff" stroke="none"></circle><rect width="50" height="50" x="600" y="700" opacity="0.15"></rect><circle r="3.75" cx="600" cy="700" fill="#1c1c1cff" stroke="none"></circle><rect width="50" height="50" x="650" y="700" opacity="0.15"></rect><circle r="3.75" cx="650" cy="700" fill="#1c1c1cff" stroke="none"></circle><rect width="50" height="50" x="700" y="700" opacity="0.15"></rect><circle r="3.75" cx="700" cy="700" fill="#1c1c1cff" stroke="none"></circle><rect width="50" height="50" x="750" y="700" opacity="0.15"></rect><circle r="3.75" cx="750" cy="700" fill="#1c1c1cff" stroke="none"></circle><rect width="50" height="50" x="800" y="700" opacity="0.15"></rect><circle r="3.75" cx="800" cy="700" fill="#1c1c1cff" stroke="none"></circle><rect width="50" height="50" x="0" y="750" opacity="0.15"></rect><circle r="3.75" cx="0" cy="750" fill="#1c1c1cff" stroke="none"></circle><rect width="50" height="50" x="50" y="750" opacity="0.15"></rect><circle r="3.75" cx="50" cy="750" fill="#1c1c1cff" stroke="none"></circle><rect width="50" height="50" x="100" y="750" opacity="0.15"></rect><circle r="3.75" cx="100" cy="750" fill="#1c1c1cff" stroke="none"></circle><rect width="50" height="50" x="150" y="750" opacity="0.15"></rect><circle r="3.75" cx="150" cy="750" fill="#1c1c1cff" stroke="none"></circle><rect width="50" height="50" x="200" y="750" opacity="0.15"></rect><circle r="3.75" cx="200" cy="750" fill="#1c1c1cff" stroke="none"></circle><rect width="50" height="50" x="250" y="750" opacity="0.15"></rect><circle r="3.75" cx="250" cy="750" fill="#1c1c1cff" stroke="none"></circle><rect width="50" height="50" x="300" y="750" opacity="0.15"></rect><circle r="3.75" cx="300" cy="750" fill="#1c1c1cff" stroke="none"></circle><rect width="50" height="50" x="350" y="750" opacity="0.15"></rect><circle r="3.75" cx="350" cy="750" fill="#1c1c1cff" stroke="none"></circle><rect width="50" height="50" x="400" y="750" opacity="0.15"></rect><circle r="3.75" cx="400" cy="750" fill="#1c1c1cff" stroke="none"></circle><rect width="50" height="50" x="450" y="750" opacity="0.15"></rect><circle r="3.75" cx="450" cy="750" fill="#1c1c1cff" stroke="none"></circle><rect width="50" height="50" x="500" y="750" opacity="0.15"></rect><circle r="3.75" cx="500" cy="750" fill="#1c1c1cff" stroke="none"></circle><rect width="50" height="50" x="550" y="750" opacity="0.15"></rect><circle r="3.75" cx="550" cy="750" fill="#1c1c1cff" stroke="none"></circle><rect width="50" height="50" x="600" y="750" opacity="0.15"></rect><circle r="3.75" cx="600" cy="750" fill="#1c1c1cff" stroke="none"></circle><rect width="50" height="50" x="650" y="750" opacity="0.15"></rect><circle r="3.75" cx="650" cy="750" fill="#1c1c1cff" stroke="none"></circle><rect width="50" height="50" x="700" y="750" opacity="0.15"></rect><circle r="3.75" cx="700" cy="750" fill="#1c1c1cff" stroke="none"></circle><rect width="50" height="50" x="750" y="750" opacity="0.15"></rect><circle r="3.75" cx="750" cy="750" fill="#1c1c1cff" stroke="none"></circle><rect width="50" height="50" x="800" y="750" opacity="0.15"></rect><circle r="3.75" cx="800" cy="750" fill="#1c1c1cff" stroke="none"></circle><rect width="50" height="50" x="0" y="800" opacity="0.15"></rect><circle r="3.75" cx="0" cy="800" fill="#1c1c1cff" stroke="none"></circle><rect width="50" height="50" x="50" y="800" opacity="0.15"></rect><circle r="3.75" cx="50" cy="800" fill="#1c1c1cff" stroke="none"></circle><rect width="50" height="50" x="100" y="800" opacity="0.15"></rect><circle r="3.75" cx="100" cy="800" fill="#1c1c1cff" stroke="none"></circle><rect width="50" height="50" x="150" y="800" opacity="0.15"></rect><circle r="3.75" cx="150" cy="800" fill="#1c1c1cff" stroke="none"></circle><rect width="50" height="50" x="200" y="800" opacity="0.15"></rect><circle r="3.75" cx="200" cy="800" fill="#1c1c1cff" stroke="none"></circle><rect width="50" height="50" x="250" y="800" opacity="0.15"></rect><circle r="3.75" cx="250" cy="800" fill="#1c1c1cff" stroke="none"></circle><rect width="50" height="50" x="300" y="800" opacity="0.15"></rect><circle r="3.75" cx="300" cy="800" fill="#1c1c1cff" stroke="none"></circle><rect width="50" height="50" x="350" y="800" opacity="0.15"></rect><circle r="3.75" cx="350" cy="800" fill="#1c1c1cff" stroke="none"></circle><rect width="50" height="50" x="400" y="800" opacity="0.15"></rect><circle r="3.75" cx="400" cy="800" fill="#1c1c1cff" stroke="none"></circle><rect width="50" height="50" x="450" y="800" opacity="0.15"></rect><circle r="3.75" cx="450" cy="800" fill="#1c1c1cff" stroke="none"></circle><rect width="50" height="50" x="500" y="800" opacity="0.15"></rect><circle r="3.75" cx="500" cy="800" fill="#1c1c1cff" stroke="none"></circle><rect width="50" height="50" x="550" y="800" opacity="0.15"></rect><circle r="3.75" cx="550" cy="800" fill="#1c1c1cff" stroke="none"></circle><rect width="50" height="50" x="600" y="800" opacity="0.15"></rect><circle r="3.75" cx="600" cy="800" fill="#1c1c1cff" stroke="none"></circle><rect width="50" height="50" x="650" y="800" opacity="0.15"></rect><circle r="3.75" cx="650" cy="800" fill="#1c1c1cff" stroke="none"></circle><rect width="50" height="50" x="700" y="800" opacity="0.15"></rect><circle r="3.75" cx="700" cy="800" fill="#1c1c1cff" stroke="none"></circle><rect width="50" height="50" x="750" y="800" opacity="0.15"></rect><circle r="3.75" cx="750" cy="800" fill="#1c1c1cff" stroke="none"></circle><rect width="50" height="50" x="800" y="800" opacity="0.15"></rect><circle r="3.75" cx="800" cy="800" fill="#1c1c1cff" stroke="none"></circle></g></svg>