<svg xmlns="http://www.w3.org/2000/svg" version="1.1" xmlns:xlink="http://www.w3.org/1999/xlink" xmlns:svgjs="http://svgjs.dev/svgjs" viewBox="0 0 800 800" opacity="1" width="800" height="800"><g stroke-width="4" stroke="hsla(0, 0%, 51%, 1.00)" fill="none"><rect width="200" height="200" x="0" y="0"></rect><rect width="200" height="200" x="200" y="0"></rect><rect width="200" height="200" x="400" y="0"></rect><rect width="200" height="200" x="600" y="0"></rect><rect width="200" height="200" x="800" y="0"></rect><rect width="200" height="200" x="0" y="200"></rect><rect width="200" height="200" x="200" y="200"></rect><rect width="200" height="200" x="400" y="200"></rect><rect width="200" height="200" x="600" y="200"></rect><rect width="200" height="200" x="800" y="200"></rect><rect width="200" height="200" x="0" y="400"></rect><rect width="200" height="200" x="200" y="400"></rect><rect width="200" height="200" x="400" y="400"></rect><rect width="200" height="200" x="600" y="400"></rect><rect width="200" height="200" x="800" y="400"></rect><rect width="200" height="200" x="0" y="600"></rect><rect width="200" height="200" x="200" y="600"></rect><rect width="200" height="200" x="400" y="600"></rect><rect width="200" height="200" x="600" y="600"></rect><rect width="200" height="200" x="800" y="600"></rect><rect width="200" height="200" x="0" y="800"></rect><rect width="200" height="200" x="200" y="800"></rect><rect width="200" height="200" x="400" y="800"></rect><rect width="200" height="200" x="600" y="800"></rect><rect width="200" height="200" x="800" y="800"></rect></g></svg>
